<svg width="48" height="48" viewBox="0 0 48 48" fill="none" xmlns="http://www.w3.org/2000/svg">
<path d="M0.137207 2.52517C0.137207 1.13056 1.26776 0 2.66238 0H23.8629C37.1177 0 47.8629 10.8139 47.8629 24.0688C47.8629 37.2479 37.1791 48 24.0001 48C10.821 48 0.137207 37.3162 0.137207 24.1371V2.52517Z" fill="#F8DB46"/>
<path fill-rule="evenodd" clip-rule="evenodd" d="M23.8629 1.54827H2.66238C2.12285 1.54827 1.68548 1.98564 1.68548 2.52517V24.1371C1.68548 36.4612 11.6761 46.4517 24.0001 46.4517C36.3183 46.4517 46.3146 36.3985 46.3146 24.0688C46.3146 11.6633 36.2569 1.54827 23.8629 1.54827ZM2.66238 0C1.26776 0 0.137207 1.13056 0.137207 2.52517V24.1371C0.137207 37.3162 10.821 48 24.0001 48C37.1791 48 47.8629 37.2479 47.8629 24.0688C47.8629 10.8139 37.1177 0 23.8629 0H2.66238Z" fill="#1E1F27"/>
<mask id="mask0_76_222" style="mask-type:alpha" maskUnits="userSpaceOnUse" x="1" y="1" width="46" height="46">
<path d="M1.68555 3.75283C1.68555 2.44984 2.74183 1.39355 4.04482 1.39355H23.7484C36.1899 1.39355 46.2758 11.5961 46.2758 24.0376L-nan -nanL46.2758 24.0376C46.2758 36.3509 36.2939 46.4483 23.9807 46.4483L-nan -nanL23.9807 46.4483C11.6674 46.4483 1.68555 36.4664 1.68555 24.1532V3.75283Z" fill="#F8DB46"/>
</mask>
<g mask="url(#mask0_76_222)">
<path d="M17.7713 27.1349C17.7713 23.6103 12.3548 26.3968 9.07209 24.5118C5.78939 22.6267 4.06602 15.9876 5.3791 15.0857C6.69217 14.1839 12.6011 13.5281 12.6011 13.5281C12.6011 13.5281 14.8465 9.18594 17.5252 8.20023C20.2038 7.21453 23.6448 7.06472 27.0095 7.932C30.3743 8.79928 32.7729 12.8907 32.7729 12.8907L43.2539 29.8617L40.9358 44.2476L17.7713 50.2474V27.1349Z" fill="#FFF9E1"/>
<path fill-rule="evenodd" clip-rule="evenodd" d="M17.2578 7.47379C20.1017 6.42729 23.7049 6.28084 27.2027 7.18243C29.1062 7.67306 30.6732 9.04877 31.7279 10.2182C32.2643 10.813 32.689 11.3779 32.9801 11.7946C33.126 12.0034 33.2391 12.1761 33.3167 12.2981C33.3555 12.3592 33.3854 12.4077 33.4062 12.4418C33.4166 12.4589 33.4247 12.4723 33.4305 12.482L33.4353 12.4901L44.0641 29.7003L41.6196 44.8702L16.9971 51.2476V27.135C16.9971 26.7915 16.9312 26.5939 16.8635 26.4778C16.8 26.369 16.7049 26.2796 16.5433 26.2033C16.1668 26.0257 15.5603 25.9723 14.6617 25.9827C14.4322 25.9853 14.1849 25.9921 13.926 25.9991C13.2508 26.0176 12.4962 26.0382 11.7693 25.994C10.7459 25.9318 9.65549 25.7395 8.68659 25.1831C6.79974 24.0996 5.46702 21.7489 4.76862 19.6774C4.41314 18.6231 4.19852 17.5743 4.16692 16.702C4.15119 16.2677 4.17948 15.8444 4.27796 15.4737C4.37344 15.1142 4.56139 14.7083 4.94082 14.4476C5.39658 14.1346 6.13928 13.8981 6.87026 13.7118C7.63834 13.516 8.52354 13.3454 9.35385 13.2054C10.1865 13.0651 10.9759 12.9536 11.5564 12.8772C11.7743 12.8485 11.9632 12.8248 12.1143 12.8063C12.1737 12.7015 12.2457 12.5772 12.3292 12.4373C12.591 11.9991 12.9696 11.403 13.4368 10.7728C14.3428 9.55085 15.689 8.05109 17.2578 7.47379ZM12.6864 14.2976L12.6711 14.2993C12.6651 14.3 12.6575 14.3009 12.6482 14.3019C12.6408 14.3028 12.6324 14.3037 12.623 14.3048C12.5806 14.3097 12.5177 14.3171 12.4369 14.3267C12.2753 14.3461 12.0423 14.3749 11.7583 14.4123C11.1898 14.487 10.4199 14.5958 9.61119 14.7322C8.80012 14.8689 7.96189 15.0313 7.25273 15.2121C6.52827 15.3968 6.04689 15.5753 5.8357 15.7117C5.82596 15.7269 5.80063 15.7722 5.77433 15.8712C5.72855 16.0435 5.7017 16.3016 5.71418 16.646C5.73899 17.3311 5.91418 18.229 6.23575 19.1828C6.89144 21.1276 8.06175 23.039 9.45759 23.8405C10.13 24.2266 10.9478 24.3929 11.8632 24.4486C12.518 24.4884 13.1619 24.4707 13.8114 24.4529C14.0874 24.4453 14.3644 24.4377 14.6437 24.4345C15.5095 24.4245 16.4623 24.4531 17.2041 24.8032C17.6015 24.9908 17.9552 25.2767 18.2008 25.6975C18.4421 26.111 18.5454 26.5973 18.5454 27.135V49.2473L40.252 43.6251L42.4438 30.0232L32.1096 13.29L32.1054 13.2829L32.1014 13.2761C32.0978 13.2702 32.0921 13.2606 32.0841 13.2475C32.0681 13.2212 32.0432 13.1809 32.0099 13.1284C31.9431 13.0234 31.8425 12.8697 31.7109 12.6813C31.4472 12.3037 31.0619 11.7916 30.5781 11.2551C29.5923 10.162 28.2775 9.05834 26.8163 8.6817C23.5846 7.84872 20.306 8.00188 17.7925 8.9268C16.6827 9.3352 15.5669 10.4994 14.6805 11.6949C14.2515 12.2735 13.9014 12.8246 13.6584 13.2313C13.5372 13.4342 13.4434 13.6 13.3805 13.7139C13.3491 13.7708 13.3254 13.8147 13.31 13.8436C13.3046 13.8537 13.3002 13.862 13.2969 13.8683C13.2954 13.8711 13.2941 13.8736 13.293 13.8756L13.2893 13.8828L13.2888 13.8838L13.0984 14.2519L12.6864 14.2976Z" fill="#1E1F27"/>
<path d="M32.2515 9.65001L26.5617 7.84545C23.8258 6.55213 24.31 16.4405 26.4683 17.3303C28.6266 18.22 35.0408 10.7422 32.2515 9.65001Z" fill="#FFF9E1"/>
<path fill-rule="evenodd" clip-rule="evenodd" d="M26.4021 16.2123C26.5784 16.5025 26.7132 16.5939 26.7634 16.6146C26.7938 16.6271 26.9224 16.6576 27.2132 16.5638C27.4933 16.4734 27.8411 16.2933 28.2357 16.0216C29.0224 15.4799 29.886 14.6504 30.6121 13.748C31.3462 12.8359 31.8826 11.92 32.0844 11.2211C32.1859 10.8699 32.1794 10.653 32.1478 10.5418C32.13 10.4793 32.1042 10.4281 31.9887 10.3788L26.278 8.56761L26.2309 8.54534C26.1436 8.50406 26.1011 8.50309 26.0946 8.50316C26.0946 8.50316 26.0924 8.50268 26.0854 8.50695C26.0481 8.52958 25.9334 8.63327 25.8075 8.94586C25.5597 9.56132 25.43 10.5807 25.4537 11.7536C25.477 12.9087 25.6469 14.1173 25.9298 15.0708C26.0716 15.5487 26.2337 15.9352 26.4021 16.2123ZM26.8402 7.12165C26.3233 6.89331 25.7716 6.8862 25.282 7.18344C24.8305 7.4575 24.5511 7.92111 24.3713 8.36758C24.0078 9.27026 23.8805 10.536 23.9057 11.7848C23.9312 13.0513 24.1161 14.4009 24.4455 15.5112C24.6099 16.0653 24.8182 16.5872 25.0788 17.0162C25.3314 17.432 25.6839 17.8442 26.1733 18.046C26.6824 18.2559 27.2263 18.1864 27.6885 18.0373C28.1614 17.8847 28.6471 17.6181 29.1137 17.2968C30.0495 16.6525 31.0198 15.7111 31.8184 14.7187C32.609 13.7361 33.2881 12.6333 33.5719 11.6507C33.7133 11.1612 33.7801 10.6217 33.637 10.1184C33.4811 9.56968 33.099 9.15046 32.5338 8.92917L32.51 8.91984L26.8402 7.12165Z" fill="#1E1F27"/>
<path d="M19.5273 13.2939C19.5273 13.8588 19.1305 14.3166 18.641 14.3166C18.1515 14.3166 17.7547 13.8588 17.7547 13.2939C17.7547 12.7291 18.1515 12.2712 18.641 12.2712C19.1305 12.2712 19.5273 12.7291 19.5273 13.2939Z" fill="#1E1F27"/>
<path d="M24.8954 37.1202C24.0861 36.5811 21.664 33.1691 21.0271 32.0461C22.0012 30.5113 23.3875 28.9017 23.7246 26.9926C23.9154 25.9126 25.5532 24.6443 27.0269 23.9981C26.1706 23.1045 25.82 22.2175 25.5952 21.5437C24.8458 19.2977 30.7359 20.5681 32.3095 22.3648C36.6107 22.3648 38.1334 24.9712 39.8194 26.9926C41.1681 28.6097 46.4158 26.6983 47.6896 26.6608L47.8899 55.9242L31.758 55.0829C31.6456 52.1256 31.9359 42.7774 31.9359 41.8612C31.9359 40.4643 32.5517 38.0647 30.2314 37.1202C27.429 35.9794 25.9069 37.794 24.8954 37.1202Z" fill="#FEF7C1"/>
<path fill-rule="evenodd" clip-rule="evenodd" d="M32.6392 21.5956C32.1471 21.1384 31.4835 20.7549 30.8042 20.4547C29.9842 20.0923 29.0613 19.8162 28.2081 19.6746C27.3856 19.5381 26.5087 19.5059 25.8462 19.743C25.501 19.8665 25.1314 20.0939 24.9181 20.5017C24.6996 20.9194 24.7231 21.3758 24.8609 21.7887C25.039 22.3224 25.3015 23.0125 25.8168 23.7443C25.3101 24.0351 24.817 24.3774 24.389 24.7466C23.7416 25.3053 23.1065 26.0424 22.9624 26.858C22.8183 27.674 22.4439 28.4572 21.9548 29.2552C21.7111 29.6529 21.4461 30.0429 21.174 30.4394C21.1451 30.4816 21.116 30.5239 21.0868 30.5663C20.8457 30.9172 20.5992 31.2758 20.3736 31.6313L20.1246 32.0237L20.3539 32.428C20.6958 33.031 21.4828 34.1946 22.2748 35.2631C22.6737 35.8012 23.0833 36.3281 23.4491 36.7589C23.7921 37.163 24.1604 37.5607 24.4663 37.7645C24.9576 38.0918 25.4789 38.0795 25.8954 38.0066C26.1503 37.962 26.459 37.8729 26.7396 37.792C26.8643 37.756 26.9835 37.7217 27.0899 37.6935C27.8566 37.4907 28.751 37.3534 29.9396 37.8372C30.3956 38.0228 30.669 38.2618 30.8447 38.5101C31.0249 38.7648 31.133 39.0733 31.1886 39.4378C31.2448 39.8066 31.2434 40.2055 31.2227 40.6259C31.2166 40.7508 31.208 40.886 31.1992 41.0244C31.1809 41.3108 31.1618 41.6107 31.1618 41.8612C31.1618 42.0713 31.1438 42.8169 31.1184 43.8637C31.0422 47.0125 30.9 52.887 30.9845 55.1123L31.0114 55.8192L48.6697 56.7401L48.4584 25.8638L47.667 25.8871C47.2528 25.8992 46.5931 26.051 45.9421 26.2007L45.9388 26.2015C45.8924 26.2121 45.8457 26.2229 45.7985 26.2338C45.1348 26.3866 44.3933 26.5574 43.6522 26.6842C42.8527 26.8209 42.1016 26.8974 41.4915 26.8559C40.8547 26.8127 40.5443 26.653 40.414 26.4968C40.2417 26.2902 40.0644 26.0679 39.8798 25.8364C39.2229 25.0125 38.4736 24.0729 37.5292 23.3165C36.3273 22.3539 34.796 21.6598 32.6392 21.5956ZM26.3092 21.2249C26.313 21.2434 26.3193 21.2677 26.3296 21.2987C26.538 21.9233 26.8431 22.6873 27.586 23.4626L28.3524 24.2623L27.3379 24.7072C26.6665 25.0015 25.9554 25.44 25.4005 25.9188C24.8129 26.4259 24.5338 26.8629 24.4871 27.1273C24.294 28.2204 23.8067 29.1965 23.2749 30.0643C23.0081 30.4995 22.7228 30.9189 22.4505 31.3156C22.4213 31.3581 22.3923 31.4004 22.3634 31.4423C22.2172 31.6551 22.076 31.8606 21.9412 32.0622C22.3084 32.6447 22.9017 33.5088 23.5186 34.3412C23.9061 34.8638 24.2935 35.3613 24.6294 35.7569C24.988 36.1793 25.226 36.4102 25.3246 36.4759L25.3258 36.4767C25.3417 36.4875 25.3937 36.5226 25.6284 36.4815C25.8047 36.4507 25.972 36.4019 26.1915 36.3379C26.3322 36.2968 26.4942 36.2496 26.6939 36.1967C27.6417 35.946 28.9095 35.7463 30.5233 36.4032C31.2275 36.6898 31.7472 37.105 32.1087 37.6159C32.4656 38.1205 32.6386 38.6763 32.7191 39.2044C32.799 39.7282 32.7914 40.2501 32.7691 40.702C32.7601 40.8853 32.7496 41.0481 32.7399 41.1973C32.7238 41.4461 32.7101 41.6569 32.7101 41.8612C32.7101 42.1242 32.6896 42.9697 32.6616 44.1251C32.5916 47.0166 32.4745 51.8487 32.5138 54.3472L47.1103 55.1084L46.9218 27.5676C46.7374 27.6073 46.5255 27.6552 46.2858 27.7104C46.2377 27.7214 46.1888 27.7327 46.1392 27.7441C45.482 27.8955 44.6998 28.0758 43.9132 28.2103C43.0729 28.354 42.1797 28.4545 41.3867 28.4007C40.6204 28.3486 39.7691 28.1408 39.225 27.4885C39.0084 27.2288 38.8026 26.9713 38.6003 26.7181C37.9614 25.9184 37.3575 25.1626 36.5613 24.525C35.5654 23.7273 34.279 23.139 32.3096 23.139H31.9585L31.7272 22.8749C31.4422 22.5494 30.8978 22.1888 30.1783 21.8708C29.4748 21.5599 28.6769 21.3219 27.9546 21.202C27.2016 21.077 26.6481 21.1004 26.3678 21.2007C26.3429 21.2096 26.3238 21.2178 26.3092 21.2249Z" fill="#1E1F27"/>
<path d="M27.1632 30.4072C26.7113 30.4072 26.345 29.9493 26.345 29.3845C26.345 28.8196 26.7113 28.3618 27.1632 28.3618C27.6151 28.3618 27.9814 28.8196 27.9814 29.3845C27.9814 29.9493 27.6151 30.4072 27.1632 30.4072Z" fill="#1E1F27"/>
</g>
</svg>
