<svg width="43" height="41" viewBox="0 0 43 41" fill="none" xmlns="http://www.w3.org/2000/svg">
<path d="M13.7713 21.1349C13.7713 17.6103 8.35479 20.3968 5.07209 18.5118C1.78939 16.6267 0.0660211 9.98756 1.3791 9.08571C2.69217 8.18386 8.60113 7.52812 8.60113 7.52812C8.60113 7.52812 10.8465 3.18594 13.5252 2.20023C16.2038 1.21453 19.6448 1.06472 23.0095 1.932C26.3743 2.79928 28.7729 6.89073 28.7729 6.89073L39.2539 23.8617L36.9358 38.2476L13.7713 44.2474V21.1349Z" fill="#FFF9E1"/>
<path fill-rule="evenodd" clip-rule="evenodd" d="M13.2578 1.47379C16.1017 0.427292 19.7049 0.280843 23.2027 1.18243C25.1062 1.67306 26.6732 3.04877 27.7279 4.21819C28.2643 4.81297 28.689 5.3779 28.9801 5.79459C29.126 6.00337 29.2391 6.17606 29.3167 6.29814C29.3555 6.3592 29.3854 6.40769 29.4062 6.4418C29.4166 6.45885 29.4247 6.47232 29.4305 6.48197L29.4353 6.49006L40.0641 23.7003L37.6196 38.8702L12.9971 45.2476V21.135C12.9971 20.7915 12.9312 20.5939 12.8635 20.4778C12.8 20.369 12.7049 20.2796 12.5433 20.2033C12.1668 20.0257 11.5603 19.9723 10.6617 19.9827C10.4322 19.9853 10.1849 19.9921 9.92596 19.9991C9.25084 20.0176 8.49623 20.0382 7.76926 19.994C6.74585 19.9318 5.65549 19.7395 4.68659 19.1831C2.79974 18.0996 1.46702 15.7489 0.768617 13.6774C0.413142 12.6231 0.198516 11.5743 0.16692 10.702C0.151187 10.2677 0.179482 9.84437 0.277959 9.47366C0.373444 9.11421 0.561388 8.70825 0.940825 8.44765C1.39658 8.13462 2.13928 7.89814 2.87026 7.71179C3.63834 7.51598 4.52354 7.34537 5.35385 7.20542C6.18652 7.06506 6.97592 6.95356 7.55638 6.87721C7.77431 6.84854 7.96318 6.82478 8.11431 6.80625C8.17372 6.70152 8.24566 6.57723 8.32923 6.43733C8.591 5.99909 8.96958 5.40299 9.43679 4.77282C10.3428 3.55085 11.689 2.05109 13.2578 1.47379ZM8.68644 8.2976L8.67109 8.29933C8.66512 8.3 8.65747 8.30087 8.64817 8.30193C8.64082 8.30277 8.63243 8.30373 8.62305 8.30482C8.58058 8.30971 8.51767 8.31705 8.43688 8.32674C8.27526 8.34613 8.04225 8.37491 7.7583 8.41226C7.18979 8.48704 6.41989 8.59584 5.61119 8.73215C4.80012 8.86886 3.96189 9.03129 3.25273 9.21207C2.52827 9.39676 2.04689 9.57526 1.8357 9.7117C1.82596 9.7269 1.80063 9.77217 1.77433 9.87116C1.72855 10.0435 1.7017 10.3016 1.71418 10.646C1.73899 11.3311 1.91418 12.229 2.23575 13.1828C2.89144 15.1276 4.06175 17.039 5.45759 17.8405C6.13005 18.2266 6.94775 18.3929 7.8632 18.4486C8.51799 18.4884 9.16186 18.4707 9.81137 18.4529C10.0874 18.4453 10.3644 18.4377 10.6437 18.4345C11.5095 18.4245 12.4623 18.4531 13.2041 18.8032C13.6015 18.9908 13.9552 19.2767 14.2008 19.6975C14.4421 20.111 14.5454 20.5973 14.5454 21.135V43.2473L36.252 37.6251L38.4438 24.0232L28.1096 7.28999L28.1054 7.28292L28.1014 7.27608C28.0978 7.2702 28.0921 7.26058 28.0841 7.24746C28.0681 7.22121 28.0432 7.18095 28.0099 7.12845C27.9431 7.02338 27.8425 6.86966 27.7109 6.68131C27.4472 6.30375 27.0619 5.79161 26.5781 5.25512C25.5923 4.162 24.2775 3.05834 22.8163 2.6817C19.5846 1.84872 16.306 2.00188 13.7925 2.9268C12.6827 3.3352 11.5669 4.49939 10.6805 5.69493C10.2515 6.27352 9.90137 6.82457 9.65842 7.2313C9.53723 7.4342 9.44341 7.60001 9.38052 7.7139C9.34909 7.77082 9.32543 7.81469 9.30998 7.84364C9.30461 7.8537 9.30023 7.86196 9.29687 7.86833C9.29539 7.87112 9.29412 7.87355 9.29303 7.87561L9.28929 7.88276L9.28877 7.88377L9.09841 8.25188L8.68644 8.2976Z" fill="#1E1F27"/>
<path d="M28.2515 3.65001L22.5617 1.84545C19.8258 0.55213 20.31 10.4405 22.4683 11.3303C24.6266 12.22 31.0408 4.74216 28.2515 3.65001Z" fill="#FFF9E1"/>
<path fill-rule="evenodd" clip-rule="evenodd" d="M22.4021 10.2123C22.5784 10.5025 22.7132 10.5939 22.7634 10.6146C22.7938 10.6271 22.9224 10.6576 23.2132 10.5638C23.4933 10.4734 23.8411 10.2933 24.2357 10.0216C25.0224 9.47991 25.886 8.65042 26.6121 7.74804C27.3462 6.83585 27.8826 5.91999 28.0844 5.22113C28.1859 4.86991 28.1794 4.65297 28.1478 4.54176C28.13 4.47934 28.1042 4.42809 27.9887 4.3788L22.278 2.56761L22.2309 2.54534C22.1436 2.50406 22.1011 2.50309 22.0946 2.50316C22.0946 2.50316 22.0924 2.50268 22.0854 2.50695C22.0481 2.52958 21.9334 2.63327 21.8075 2.94586C21.5597 3.56132 21.43 4.58075 21.4537 5.7536C21.477 6.90873 21.6469 8.11726 21.9298 9.07085C22.0716 9.54868 22.2337 9.9352 22.4021 10.2123ZM22.8402 1.12165C22.3233 0.893308 21.7716 0.886196 21.282 1.18344C20.8305 1.4575 20.5511 1.92111 20.3713 2.36758C20.0078 3.27026 19.8805 4.53603 19.9057 5.78483C19.9312 7.05134 20.1161 8.40091 20.4455 9.51122C20.6099 10.0653 20.8182 10.5872 21.0788 11.0162C21.3314 11.432 21.6839 11.8442 22.1733 12.046C22.6824 12.2559 23.2263 12.1864 23.6885 12.0373C24.1614 11.8847 24.6471 11.6181 25.1137 11.2968C26.0495 10.6525 27.0198 9.71107 27.8184 8.71868C28.609 7.73611 29.2881 6.63334 29.5719 5.65074C29.7133 5.16123 29.7801 4.62173 29.637 4.11843C29.4811 3.56968 29.099 3.15046 28.5338 2.92917L28.51 2.91984L22.8402 1.12165Z" fill="#1E1F27"/>
<path d="M15.5273 7.29394C15.5273 7.85876 15.1305 8.31664 14.641 8.31664C14.1515 8.31664 13.7547 7.85876 13.7547 7.29394C13.7547 6.72912 14.1515 6.27125 14.641 6.27125C15.1305 6.27125 15.5273 6.72912 15.5273 7.29394Z" fill="#1E1F27"/>
<path d="M20.8954 31.1202C20.0861 30.5811 17.664 27.1691 17.0271 26.0461C18.0012 24.5113 19.3875 22.9017 19.7246 20.9926C19.9154 19.9126 21.5532 18.6443 23.0269 17.9981C22.1706 17.1045 21.82 16.2175 21.5952 15.5437C20.8458 13.2977 26.7359 14.5681 28.3095 16.3648C32.6107 16.3648 34.1334 18.9712 35.8194 20.9926C37.1681 22.6097 42.4158 20.6983 43.6896 20.6608L43.8899 49.9242L27.758 49.0829C27.6456 46.1256 27.9359 36.7774 27.9359 35.8612C27.9359 34.4643 28.5517 32.0647 26.2314 31.1202C23.429 29.9794 21.9069 31.794 20.8954 31.1202Z" fill="#FEF7C1"/>
<path fill-rule="evenodd" clip-rule="evenodd" d="M28.6392 15.5956C28.1471 15.1384 27.4835 14.7549 26.8042 14.4547C25.9842 14.0923 25.0613 13.8162 24.2081 13.6746C23.3856 13.5381 22.5087 13.5059 21.8462 13.743C21.501 13.8665 21.1314 14.0939 20.9181 14.5017C20.6996 14.9194 20.7231 15.3758 20.8609 15.7887C21.039 16.3224 21.3015 17.0125 21.8168 17.7443C21.3101 18.0351 20.817 18.3774 20.389 18.7466C19.7416 19.3053 19.1065 20.0424 18.9624 20.858C18.8183 21.674 18.4439 22.4572 17.9548 23.2552C17.7111 23.6529 17.4461 24.0429 17.174 24.4394C17.1451 24.4816 17.116 24.5239 17.0868 24.5663C16.8457 24.9172 16.5992 25.2758 16.3736 25.6313L16.1246 26.0237L16.3539 26.428C16.6958 27.031 17.4828 28.1946 18.2748 29.2631C18.6737 29.8012 19.0833 30.3281 19.4491 30.7589C19.7921 31.163 20.1604 31.5607 20.4663 31.7645C20.9576 32.0918 21.4789 32.0795 21.8954 32.0066C22.1503 31.962 22.459 31.8729 22.7396 31.792C22.8643 31.756 22.9835 31.7217 23.0899 31.6935C23.8566 31.4907 24.751 31.3534 25.9396 31.8372C26.3956 32.0228 26.669 32.2618 26.8447 32.5101C27.0249 32.7648 27.133 33.0733 27.1886 33.4378C27.2448 33.8066 27.2434 34.2055 27.2227 34.6259C27.2166 34.7508 27.208 34.886 27.1992 35.0244C27.1809 35.3108 27.1618 35.6107 27.1618 35.8612C27.1618 36.0713 27.1438 36.8169 27.1184 37.8637C27.0422 41.0125 26.9 46.887 26.9845 49.1123L27.0114 49.8192L44.6697 50.7401L44.4584 19.8638L43.667 19.8871C43.2528 19.8992 42.5931 20.051 41.9421 20.2007L41.9388 20.2015C41.8924 20.2121 41.8457 20.2229 41.7985 20.2338C41.1348 20.3866 40.3933 20.5574 39.6522 20.6842C38.8527 20.8209 38.1016 20.8974 37.4915 20.8559C36.8547 20.8127 36.5443 20.653 36.414 20.4968C36.2417 20.2902 36.0644 20.0679 35.8798 19.8364C35.2229 19.0125 34.4736 18.0729 33.5292 17.3165C32.3273 16.3539 30.796 15.6598 28.6392 15.5956ZM22.3092 15.2249C22.313 15.2434 22.3193 15.2677 22.3296 15.2987C22.538 15.9233 22.8431 16.6873 23.586 17.4626L24.3524 18.2623L23.3379 18.7072C22.6665 19.0015 21.9554 19.44 21.4005 19.9188C20.8129 20.4259 20.5338 20.8629 20.4871 21.1273C20.294 22.2204 19.8067 23.1965 19.2749 24.0643C19.0081 24.4995 18.7228 24.9189 18.4505 25.3156C18.4213 25.3581 18.3923 25.4004 18.3634 25.4423C18.2172 25.6551 18.076 25.8606 17.9412 26.0622C18.3084 26.6447 18.9017 27.5088 19.5186 28.3412C19.9061 28.8638 20.2935 29.3613 20.6294 29.7569C20.988 30.1793 21.226 30.4102 21.3246 30.4759L21.3258 30.4767C21.3417 30.4875 21.3937 30.5226 21.6284 30.4815C21.8047 30.4507 21.972 30.4019 22.1915 30.3379C22.3322 30.2968 22.4942 30.2496 22.6939 30.1967C23.6417 29.946 24.9095 29.7463 26.5233 30.4032C27.2275 30.6898 27.7472 31.105 28.1087 31.6159C28.4656 32.1205 28.6386 32.6763 28.7191 33.2044C28.799 33.7282 28.7914 34.2501 28.7691 34.702C28.7601 34.8853 28.7496 35.0481 28.7399 35.1973C28.7238 35.4461 28.7101 35.6569 28.7101 35.8612C28.7101 36.1242 28.6896 36.9697 28.6616 38.1251C28.5916 41.0166 28.4745 45.8487 28.5138 48.3472L43.1103 49.1084L42.9218 21.5676C42.7374 21.6073 42.5255 21.6552 42.2858 21.7104C42.2377 21.7214 42.1888 21.7327 42.1392 21.7441C41.482 21.8955 40.6998 22.0758 39.9132 22.2103C39.0729 22.354 38.1797 22.4545 37.3867 22.4007C36.6204 22.3486 35.7691 22.1408 35.225 21.4885C35.0084 21.2288 34.8026 20.9713 34.6003 20.7181C33.9614 19.9184 33.3575 19.1626 32.5613 18.525C31.5654 17.7273 30.279 17.139 28.3096 17.139H27.9585L27.7272 16.8749C27.4422 16.5494 26.8978 16.1888 26.1783 15.8708C25.4748 15.5599 24.6769 15.3219 23.9546 15.202C23.2016 15.077 22.6481 15.1004 22.3678 15.2007C22.3429 15.2096 22.3238 15.2178 22.3092 15.2249Z" fill="#1E1F27"/>
<path d="M23.1632 24.4072C22.7113 24.4072 22.345 23.9493 22.345 23.3845C22.345 22.8196 22.7113 22.3618 23.1632 22.3618C23.6151 22.3618 23.9814 22.8196 23.9814 23.3845C23.9814 23.9493 23.6151 24.4072 23.1632 24.4072Z" fill="#1E1F27"/>
</svg>
