<svg width="48" height="48" viewBox="0 0 48 48" fill="none" xmlns="http://www.w3.org/2000/svg">
<path d="M0.137207 2.52517C0.137207 1.13056 1.26776 0 2.66238 0H23.8629C37.1177 0 47.8629 10.8139 47.8629 24.0688C47.8629 37.2479 37.1791 48 24.0001 48C10.821 48 0.137207 37.3162 0.137207 24.1371V2.52517Z" fill="#F8DB46"/>
<path fill-rule="evenodd" clip-rule="evenodd" d="M23.8629 1.54827H2.66238C2.12285 1.54827 1.68548 1.98564 1.68548 2.52517V24.1371C1.68548 36.4612 11.6761 46.4517 24.0001 46.4517C36.3183 46.4517 46.3146 36.3985 46.3146 24.0688C46.3146 11.6633 36.2569 1.54827 23.8629 1.54827ZM2.66238 0C1.26776 0 0.137207 1.13056 0.137207 2.52517V24.1371C0.137207 37.3162 10.821 48 24.0001 48C37.1791 48 47.8629 37.2479 47.8629 24.0688C47.8629 10.8139 37.1177 0 23.8629 0H2.66238Z" fill="#1E1F27"/>
</svg>
